<svg xmlns="http://www.w3.org/2000/svg" width="10.992" height="10.999" viewBox="0 0 10.992 10.999">
  <g id="그룹_1" data-name="그룹 1" transform="translate(-452.501 -310.496)">
    <g id="arrow-down-sign-to-navigate" transform="translate(555.641 310.495) rotate(90)">
      <path id="패스_16" data-name="패스 16" d="M5.5,103.14a.786.786,0,0,1-.545-.216L.226,98.4a.715.715,0,0,1,0-1.042.8.8,0,0,1,1.089,0l4.185,4,4.185-4a.8.8,0,0,1,1.089,0,.715.715,0,0,1,0,1.042l-4.73,4.526A.786.786,0,0,1,5.5,103.14Z" fill="gray"/>
    </g>
    <g id="arrow-down-sign-to-navigate-2" data-name="arrow-down-sign-to-navigate" transform="translate(560.637 310.495) rotate(90)">
      <path id="패스_16-2" data-name="패스 16" d="M5.5,103.14a.786.786,0,0,1-.545-.216L.226,98.4a.715.715,0,0,1,0-1.042.8.8,0,0,1,1.089,0l4.185,4,4.185-4a.8.8,0,0,1,1.089,0,.715.715,0,0,1,0,1.042l-4.73,4.526A.786.786,0,0,1,5.5,103.14Z" fill="gray"/>
    </g>
  </g>
</svg>
