<svg width="14" height="14" viewBox="0 0 14 14" fill="none" xmlns="http://www.w3.org/2000/svg">
<circle cx="7" cy="7" r="7" fill="#999999"/>
<path fill-rule="evenodd" clip-rule="evenodd" d="M4.40688 8.87989C4.21151 9.07505 4.21151 9.39145 4.40688 9.5866C4.60226 9.78176 4.91902 9.78176 5.11439 9.5866L6.99647 7.70664L8.8815 9.58954C9.07687 9.78469 9.39363 9.78469 9.589 9.58954C9.78437 9.39439 9.78437 9.07798 9.589 8.88283L7.70398 6.99993L9.589 5.11702C9.78437 4.92187 9.78437 4.60547 9.589 4.41031C9.39363 4.21516 9.07687 4.21516 8.8815 4.41031L6.99647 6.29322L5.11439 4.41325C4.91902 4.2181 4.60226 4.2181 4.40688 4.41325C4.21151 4.6084 4.21151 4.92481 4.40688 5.11996L6.28897 6.99993L4.40688 8.87989Z" fill="#FFFFFF"/>
</svg>
