<svg xmlns="http://www.w3.org/2000/svg" width="12" height="13" viewBox="0 0 12 13">
  <g id="Flat_Color" data-name="Flat Color" transform="translate(-3 -2)">
    <path id="패스_293" data-name="패스 293" d="M12.683,3.338H8.669A.669.669,0,1,1,8.669,2h4.014a.669.669,0,0,1,0,1.338Z" transform="translate(-1.676)" fill="#b5bac4"/>
    <path id="패스_294" data-name="패스 294" d="M11.66,16.306h-4A2.621,2.621,0,0,1,5,13.73V6h9.324v7.73A2.621,2.621,0,0,1,11.66,16.306Z" transform="translate(-0.662 -1.306)" fill="#cfd2d9"/>
    <path id="패스_295" data-name="패스 295" d="M14.333,7.338H3.667A.669.669,0,0,1,3.667,6H14.333a.669.669,0,0,1,0,1.338Z" transform="translate(0 -1.408)" fill="#b5bac4"/>
    <path id="패스_296" data-name="패스 296" d="M9.548,15.352A.618.618,0,0,1,9,14.683V10.669A.618.618,0,0,1,9.548,10a.618.618,0,0,1,.548.669v4.014A.618.618,0,0,1,9.548,15.352Z" transform="translate(-2 -2.901)" fill="#fff"/>
    <path id="패스_297" data-name="패스 297" d="M9.548,15.352A.618.618,0,0,1,9,14.683V10.669A.618.618,0,0,1,9.548,10a.618.618,0,0,1,.548.669v4.014A.618.618,0,0,1,9.548,15.352Z" transform="translate(1.272 -2.901)" fill="#fff"/>
  </g>
</svg>
