<?xml version="1.0" standalone="no"?>
<!DOCTYPE svg PUBLIC "-//W3C//DTD SVG 20010904//EN"
 "http://www.w3.org/TR/2001/REC-SVG-20010904/DTD/svg10.dtd">
<svg version="1.0" xmlns="http://www.w3.org/2000/svg"
 width="256.000000pt" height="256.000000pt" viewBox="0 0 256.000000 256.000000"
 preserveAspectRatio="xMidYMid meet">

<g transform="translate(0.000000,256.000000) scale(0.100000,-0.100000)"
fill="#000000" stroke="none">
<path d="M1289 2207 c-72 -48 -97 -126 -65 -200 8 -18 134 -151 280 -297 l266
-265 -714 -5 c-702 -5 -715 -5 -742 -26 -53 -39 -69 -71 -69 -134 0 -63 16
-95 69 -134 27 -21 38 -21 744 -24 l716 -2 -286 -288 c-250 -250 -287 -292
-293 -325 -21 -113 79 -213 192 -193 34 7 88 57 480 449 388 388 443 447 448
479 17 92 28 78 -428 536 -232 233 -434 430 -449 438 -41 22 -109 18 -149 -9z"/>
</g>
</svg>
