<svg width="20" height="20" viewBox="0 0 22 23" fill="none" xmlns="http://www.w3.org/2000/svg">
<path d="M11 7.99999C9.09524 7.99999 7.55108 9.56698 7.55108 11.5C7.55108 13.433 9.09524 15 11 15C12.9048 15 14.4489 13.433 14.4489 11.5C14.4489 9.56698 12.9048 7.99999 11 7.99999ZM20.6804 9.00238L19.7466 9.78249C18.6814 10.6724 18.6814 12.3276 19.7466 13.2175L20.6804 13.9976C21.0113 14.274 21.0968 14.7528 20.8825 15.1295L19.0386 18.3705C18.8243 18.7472 18.373 18.9114 17.9716 18.7588L16.839 18.3282C15.547 17.8371 14.1344 18.6646 13.9076 20.0457L13.7088 21.2565C13.6383 21.6855 13.2725 22 12.8439 22H9.15609C8.72749 22 8.36167 21.6855 8.29122 21.2565L8.09235 20.0457C7.86555 18.6646 6.45301 17.8371 5.16103 18.3282L4.02841 18.7588C3.62699 18.9114 3.17573 18.7472 2.96138 18.3705L1.11752 15.1295C0.903216 14.7528 0.988664 14.274 1.31958 13.9976L2.25342 13.2175C3.31856 12.3276 3.31856 10.6724 2.25342 9.78249L1.31958 9.00238C0.988664 8.72591 0.903216 8.24718 1.11752 7.87047L2.96138 4.62949C3.17573 4.25278 3.62699 4.08851 4.02841 4.24112L5.16103 4.67171C6.45301 5.16289 7.86555 4.33531 8.09235 2.95425L8.29122 1.7435C8.36167 1.31447 8.72749 1 9.15609 1H12.8439C13.2725 1 13.6383 1.31447 13.7088 1.7435L13.9076 2.95425C14.1344 4.33531 15.547 5.16289 16.839 4.67171L17.9716 4.24112C18.373 4.08851 18.8243 4.25278 19.0386 4.62949L20.8825 7.87047C21.0968 8.24718 21.0113 8.72591 20.6804 9.00238Z" stroke="#ffffff" stroke-width="2" stroke-miterlimit="10" stroke-linecap="round" stroke-linejoin="round"/>
</svg>
